<svg version="1.0" xmlns="http://www.w3.org/2000/svg" width="1189pt" height="1280pt" fill="silver" viewBox="0 0 1189 1280"><path d="M541.6 1.1c-11 2.6-23.5 11.8-29.2 21.5-5.7 9.7-5.8 10.6-6.4 43.9l-.5 31-5 .7c-35.6 5.7-84.4 18.6-113.9 30.2-5 2-9.1 3.5-9.1 3.3-.1-.1-3.7-6.3-8-13.7-13.7-23.8-16.3-27.7-21.3-31.3-8.6-6.3-21.5-8.7-30.7-5.7-3.6 1.2-87.8 49.1-102 58.1-10.6 6.7-15.6 15.2-16.3 27.4-.5 10.3.5 12.8 14 36.2l10.6 18.2-3.7 2.8c-24.6 18.5-68.6 63.2-93.2 94.8C55.3 410.3 14.1 514 2.3 632c-2.4 24.6-2.4 82.5 0 107 10.9 108.3 46.3 204.2 107.5 290.5 31.8 44.9 73.6 88.8 117.2 123.2 130.4 102.6 297.8 146 461.9 119.7 109.5-17.5 211.4-65.3 296.1-138.8 14.8-12.8 44.8-42.8 57.6-57.6 82.8-95.4 131.2-208.7 144.1-337 2.4-24.5 2.4-82.4 0-107-11.8-118-53-221.7-124.6-313.5-24.6-31.6-68.6-76.3-93.2-94.8l-3.7-2.8 10.6-18.2c5.8-10 11.4-20.5 12.4-23.2 4.8-13.5-.2-30.2-11.5-38.2-4.6-3.3-91-53.4-99.4-57.6-13.5-6.9-29.9-4.4-40.1 6.2-2 2.1-8.6 12.4-14.6 22.7-6 10.4-11 19-11 19.1-.1.2-4.2-1.3-9.2-3.3-29.5-11.6-78.3-24.5-113.9-30.2l-5-.7-.5-31.6-.5-31.5-3.7-7.5C672.5 14.1 661.4 5 648.4 1.6 643.1.2 634.9 0 593.9.1c-26.6.1-50.2.5-52.3 1zm95.7 187.4c154.8 13.6 292.4 96.7 376.9 227.5 37.9 58.7 63.2 126 73.7 196 3.9 26 4.6 37.7 4.6 73.5s-.7 47.5-4.6 73.5c-18.9 126.3-84.6 239.1-185.9 319.1-64.4 50.9-143.7 85.8-225 99.3-31.7 5.2-42.8 6.1-82.5 6.1s-50.8-.9-82.5-6.1c-102.1-16.9-195.7-65.2-270-139.4-76.1-76-125-172.7-140.9-279-3.9-26-4.6-37.7-4.6-73.5s.7-47.5 4.6-73.5c24.4-163 127.8-303.7 276.1-375.4 55-26.7 111.9-42.5 173.3-48.1 19.9-1.8 66.3-1.8 86.8 0z"/><path d="M586.5 256.9c-4.8 2.2-7.9 5-10.2 9.4-1.7 3-1.8 13-2.3 164.9l-.5 161.8-61-145.7c-33.5-80.1-61.9-147-63-148.6-3.6-5.4-7-7.2-13.5-7.2-6.6 0-9.9 1.8-13.8 7.6-4.9 7-8.1-1.3 75.2 197.1 60.9 145.3 76.6 183.6 76.6 187 0 8.9 4.3 16.8 11 20.3 10.2 5.3 23.3.6 28.1-10 1.8-3.8 1.9-13 1.9-212 0-142.1-.3-209.2-1.1-211.8-3.1-11.3-16.8-17.7-27.4-12.8zM390 330.1c-3.6 2.1-6.9 4-7.3 4.2-.4.1 5.4 10.9 12.9 23.9l13.7 23.8 6.1-3.6c3.4-1.9 6.7-3.8 7.5-4.3 1.1-.7-1.5-5.8-11.8-23.7-7.3-12.6-13.6-23.2-13.9-23.6-.4-.4-3.6 1.1-7.2 3.3zM786.7 335.2c-19.9 34.1-22 38.1-20.6 38.9.8.5 4.2 2.4 7.5 4.4l6.1 3.5 13.4-23.2c7.4-12.8 13.5-23.5 13.7-23.8.1-.3-1.2-1.3-3-2.2-1.8-.9-5.2-2.8-7.5-4.3l-4.2-2.5-5.4 9.2zM239.3 480.3c-2.2 4-3.8 7.5-3.5 7.8.4.4 11 6.6 23.6 13.9 17.6 10.2 23.1 12.9 23.7 11.9.5-.8 2.4-4.2 4.4-7.6l3.5-6.1-23.6-13.6c-12.9-7.5-23.6-13.6-23.7-13.6-.1.1-2.1 3.3-4.4 7.3zM921.2 486.7 898 500.2l3.5 6.1c2 3.4 3.9 6.8 4.4 7.5.6 1.1 6.5-1.9 24.4-12.3l23.7-13.7-2.6-4.1c-1.4-2.3-3.3-5.7-4.1-7.5-.9-1.7-1.9-3.2-2.2-3.1-.3 0-11.1 6.1-23.9 13.6zM184.5 685.5v8.5H239v-17h-54.5v8.5zM950 685.5v8.5h54.5v-17H950v8.5zM262.5 867.1c-10.4 6.1-20.9 12.1-23.2 13.5l-4.2 2.4 4.1 7.3c2.3 3.9 4.2 7.3 4.3 7.4.1.2 10.8-5.8 23.8-13.3l23.7-13.7-3.9-7.1c-2.2-3.9-4.3-7.2-4.8-7.3-.4-.1-9.3 4.7-19.8 10.8zM902.3 862.7c-2.1 3.8-3.8 7.1-3.8 7.5 0 .8 46.7 28.1 47 27.6.1-.2 2-3.5 4.3-7.5l4.1-7.2-3.2-1.9c-7.7-4.7-43.6-25.2-44-25.2-.3 0-2.3 3-4.4 6.7zM395.6 1012.6c-7.5 13-13.5 23.8-13.4 23.9.2.1 3.6 2 7.5 4.3l7.3 4.1 3.9-6.7c18.3-31.7 23.1-40.1 23.1-40.5 0-.4-11.1-7.1-14.1-8.5-.3-.1-6.7 10.4-14.3 23.4zM772.2 993c-3.5 2.1-6.6 4-6.8 4.3-.5.5 3 6.8 22.7 40.9l3.9 6.7 7.3-4.1c3.9-2.3 7.3-4.2 7.5-4.3.5-.4-26.8-47-27.5-47.1-.5-.1-3.6 1.5-7.1 3.6zM586 1068.2v27.3h17V1041h-17v27.2z"/></svg>